<svg width="65" height="65" viewBox="0 0 65 65" fill="none" xmlns="http://www.w3.org/2000/svg">
<rect x="0.666626" y="0.640015" width="64" height="64" rx="22.8571" fill="#F6EED5"/>
<g clip-path="url(#clip0_26_2083)">
<path fill-rule="evenodd" clip-rule="evenodd" d="M41.6945 14.4C41.8363 14.1722 42.0425 13.9916 42.2869 13.881C42.5314 13.7703 42.8032 13.7347 43.0679 13.7784L50.0463 14.9429C50.4012 15.002 50.718 15.1997 50.9271 15.4923C51.1363 15.785 51.2208 16.1487 51.1619 16.5036L50.0002 23.4847C49.9559 23.7494 49.8341 23.9949 49.6502 24.1904C49.4664 24.3858 49.2287 24.5224 48.9673 24.5828C48.7059 24.6432 48.4324 24.6248 48.1814 24.5298C47.9305 24.4349 47.7133 24.2676 47.5573 24.0493L45.6736 21.4164L35.9728 27.6159C35.5591 27.8806 35.0636 27.9868 34.5778 27.915C34.0919 27.8432 33.6484 27.5981 33.329 27.225L27.9195 20.9007L17.8033 26.0986C17.3232 26.3455 16.7646 26.3916 16.2505 26.2266C15.7364 26.0617 15.3088 25.6993 15.0619 25.2191C14.815 24.739 14.7689 24.1804 14.9339 23.6663C15.0988 23.1522 15.4612 22.7246 15.9413 22.4777L27.4906 16.5416C27.8984 16.3321 28.3649 16.2664 28.8146 16.3551C29.2644 16.4437 29.671 16.6816 29.9688 17.0301L35.2725 23.2323L43.3068 18.0969L41.7406 15.9064C41.5849 15.688 41.4974 15.4283 41.4892 15.1602C41.481 14.8921 41.5524 14.6276 41.6945 14.4ZM23.9268 27.7271L16.0499 32.2329C15.7387 32.4106 15.48 32.6674 15.2998 32.9771C15.1197 33.2869 15.0245 33.6388 15.0239 33.9971V49.6043C15.0239 50.728 15.9359 51.64 17.0596 51.64H23.9268V27.7271ZM27.3196 51.64H37.2756V33.1503L32.7998 35.3869L28.3266 27.5589C28.1002 27.1612 27.7464 26.8514 27.3223 26.6794L27.3196 51.64ZM48.2739 51.64H40.6685V31.4539L47.3646 28.1044C47.675 27.9495 48.0198 27.8764 48.3663 27.8922C48.7129 27.9079 49.0496 28.012 49.3446 28.1944C49.6397 28.3769 49.8832 28.6317 50.0521 28.9347C50.221 29.2377 50.3096 29.5788 50.3096 29.9257V49.6043C50.3096 50.1442 50.0951 50.662 49.7134 51.0438C49.3316 51.4255 48.8138 51.64 48.2739 51.64Z" fill="#653F1C"/>
</g>
<defs>
<clipPath id="clip0_26_2083">
<rect width="38" height="38" fill="white" transform="translate(13.6666 13.64)"/>
</clipPath>
</defs>
</svg>
