<svg width="64" height="65" viewBox="0 0 64 65" fill="none" xmlns="http://www.w3.org/2000/svg">
<rect y="0.640015" width="64" height="64" rx="22.8571" fill="#F6EED5"/>
<path d="M14.9531 48.2183C14.368 48.4347 13.8247 48.3707 13.3234 48.0263C12.8221 47.6819 12.5714 47.1973 12.5714 46.5726V18.6183C12.5714 18.2099 12.6705 17.8373 12.8686 17.5006C13.0666 17.1638 13.3546 16.9299 13.7326 16.7989L24 13.2994L37.7143 18.0994L46.7611 14.6023C47.3463 14.3844 47.8895 14.4255 48.3908 14.7257C48.8922 15.0259 49.1428 15.4739 49.1428 16.0697V31.4137C47.8979 30.0865 46.4655 29.0732 44.8457 28.3737C43.2259 27.6743 41.5223 27.3238 39.7348 27.3223C39.2076 27.3223 38.6804 27.3596 38.1531 27.4343C37.6259 27.509 37.0986 27.6065 36.5714 27.7269V19.9897L25.1428 15.9989V44.3006L14.9531 48.2183ZM49.856 51.9806L44.2468 46.3714C43.619 46.8789 42.9295 47.2598 42.1783 47.5143C41.427 47.7657 40.6133 47.8914 39.7371 47.8914C37.6617 47.8914 35.8827 47.1509 34.4 45.6697C32.9173 44.1886 32.176 42.4095 32.176 40.3326C32.176 38.2556 32.9173 36.4766 34.4 34.9954C35.8827 33.5143 37.6617 32.773 39.7371 32.7714C41.8126 32.7699 43.5908 33.5112 45.072 34.9954C46.5531 36.4796 47.2945 38.2587 47.296 40.3326C47.296 41.1798 47.1695 41.9791 46.9166 42.7303C46.6636 43.4815 46.2979 44.1711 45.8194 44.7989L51.4286 50.3623L49.856 51.9806ZM39.7371 45.608C41.2366 45.608 42.4884 45.1166 43.4926 44.1337C44.4967 43.1524 45.0027 41.8853 45.0103 40.3326C45.0194 38.8316 44.5181 37.5775 43.5063 36.5703C42.4929 35.5615 41.2358 35.0572 39.7348 35.0572C38.2339 35.0572 36.9806 35.5615 35.9748 36.5703C34.9691 37.5791 34.4647 38.8332 34.4617 40.3326C34.4586 41.832 34.963 43.0861 35.9748 44.0949C36.9867 45.1036 38.24 45.608 39.7348 45.608" fill="#653F1C"/>
</svg>
