<svg width="65" height="65" viewBox="0 0 65 65" fill="none" xmlns="http://www.w3.org/2000/svg">
<rect x="0.333374" y="0.640015" width="64" height="64" rx="22.8571" fill="#F6EED5"/>
<path d="M32.4818 15.2646C32.4447 15.2646 32.3927 15.2646 32.3482 15.2736C32.0068 15.3366 31.5986 15.6521 31.3314 16.3727C31.0494 17.0927 30.99 18.1191 31.2349 19.2183C31.4873 20.3041 32.0068 21.24 32.5857 21.8115C33.1498 22.383 33.6619 22.5388 34.0033 22.4795C34.3595 22.4275 34.7529 22.1009 35.0201 21.3884C35.3021 20.673 35.3763 19.6324 35.124 18.5421C34.8642 17.4437 34.3521 16.5167 33.7732 15.9489C33.2834 15.4443 32.8306 15.2646 32.4818 15.2646ZM41.0467 24.8767C40.2302 24.899 39.1986 25.1142 38.1967 25.5373C37.0388 26.042 36.1482 26.7173 35.6584 27.3556C35.1685 27.9716 35.124 28.4392 35.2799 28.7138C35.4431 28.9884 35.8959 29.2482 36.7642 29.2853C37.6326 29.3373 38.8053 29.122 39.9556 28.6322C41.106 28.1349 42.0115 27.4521 42.5013 26.8287C42.9912 26.2127 43.0283 25.7302 42.8724 25.4556C42.7166 25.1736 42.2564 24.9287 41.3881 24.899C41.2693 24.8767 41.1654 24.8767 41.0467 24.8767ZM30.9306 31.7716C30.4408 31.7791 29.9955 31.8384 29.5947 31.9423C28.7189 32.165 28.2142 32.5658 28.051 33.0482C27.8654 33.5306 28.051 34.1095 28.6299 34.733C29.2385 35.3416 30.2404 35.9279 31.4873 36.2545C32.7267 36.581 33.9217 36.5736 34.8123 36.3361C35.7103 36.106 36.215 35.6978 36.3783 35.2228C36.549 34.7404 36.3783 34.1689 35.7771 33.538C35.1908 32.9295 34.1888 32.3431 32.942 32.024C32.2369 31.8384 31.5467 31.7642 30.9306 31.7716ZM42.8576 36.0838L38.2709 38.2584C38.5826 38.2732 39.3619 38.2955 39.3619 38.2955L39.8517 38.9412L43.9115 36.8259L42.8576 36.0838ZM38.8127 36.0912L34.5525 38.1099C34.9607 38.1322 35.9256 38.147 36.3115 38.1693L40.0076 36.4177L38.8127 36.0912ZM45.6853 36.8927L40.4529 39.6685L41.5291 41.0564L47.0584 37.7462L45.6853 36.8927ZM24.9931 37.5681C24.7684 37.5677 24.5443 37.5926 24.3252 37.6423C19.0185 38.867 15.8865 38.9709 14.9588 38.9709H14.6693V46.9494C14.6693 46.9494 15.5302 46.8232 16.9627 46.8158C19.731 46.8158 24.6072 47.2908 29.3572 50.0666C29.6095 50.2224 30.1513 50.2818 30.8267 50.2818C32.6302 50.2818 35.3689 49.8513 35.9998 49.6138C42.3529 47.2314 49.9974 40.6927 49.9974 40.6927L47.5853 38.5849C47.5853 38.5849 41.6627 42.3627 40.9131 42.7263C34.1517 46.0439 28.6744 43.9732 28.6744 43.9732C28.6744 43.9732 37.5732 44.1959 40.4306 41.947L38.7533 39.4236C38.7533 39.4236 32.608 39.2529 30.4185 38.9634C29.2756 38.815 26.8041 37.5681 24.9931 37.5681Z" fill="#653F1C"/>
</svg>
