<svg width="32" height="40" viewBox="0 0 32 40" fill="none" xmlns="http://www.w3.org/2000/svg">
<path d="M12.6489 37.2515C13.7262 38.1404 14.8498 38.9529 16 39.7458C17.1527 38.9634 18.2708 38.1312 19.3511 37.2515C21.152 35.7728 22.8468 34.1695 24.4231 32.4533C28.0569 28.48 32 22.72 32 16.2542C32 14.1531 31.5861 12.0725 30.7821 10.1313C29.978 8.19007 28.7994 6.42624 27.3137 4.9405C25.828 3.45477 24.0641 2.27621 22.1229 1.47214C20.1817 0.668064 18.1012 0.254211 16 0.254211C13.8989 0.254211 11.8183 0.668064 9.87706 1.47214C7.93586 2.27621 6.17203 3.45477 4.68629 4.9405C3.20055 6.42624 2.022 8.19007 1.21793 10.1313C0.413852 12.0725 -3.13096e-08 14.1531 0 16.2542C0 22.72 3.94311 28.4782 7.57689 32.4533C9.1531 34.1701 10.8479 35.7723 12.6489 37.2515ZM16 22.032C14.4676 22.032 12.998 21.4233 11.9145 20.3397C10.831 19.2562 10.2222 17.7866 10.2222 16.2542C10.2222 14.7218 10.831 13.2522 11.9145 12.1687C12.998 11.0852 14.4676 10.4764 16 10.4764C17.5324 10.4764 19.002 11.0852 20.0855 12.1687C21.169 13.2522 21.7778 14.7218 21.7778 16.2542C21.7778 17.7866 21.169 19.2562 20.0855 20.3397C19.002 21.4233 17.5324 22.032 16 22.032Z" fill="#653F1C"/>
</svg>
