<svg width="39" height="38" viewBox="0 0 39 38" fill="none" xmlns="http://www.w3.org/2000/svg">
<path d="M8.30873 16.4456C11.3487 22.42 16.2465 27.3178 22.2209 30.3578L26.8654 25.7133C27.4565 25.1222 28.2798 24.9533 29.0187 25.1856C31.3832 25.9667 33.9165 26.3889 36.5554 26.3889C37.1153 26.3889 37.6523 26.6113 38.0482 27.0072C38.4441 27.4031 38.6665 27.9401 38.6665 28.5V35.8889C38.6665 36.4488 38.4441 36.9858 38.0482 37.3817C37.6523 37.7776 37.1153 38 36.5554 38C27.0371 38 17.9086 34.2189 11.1781 27.4884C4.44764 20.7579 0.666504 11.6294 0.666504 2.11111C0.666504 1.55121 0.888924 1.01424 1.28483 0.61833C1.68074 0.22242 2.21771 0 2.77762 0H10.1665C10.7264 0 11.2634 0.22242 11.6593 0.61833C12.0552 1.01424 12.2776 1.55121 12.2776 2.11111C12.2776 4.75 12.6998 7.28333 13.4809 9.64778C13.7132 10.3867 13.5443 11.21 12.9532 11.8011L8.30873 16.4456Z" fill="#653F1C"/>
</svg>
